# xmcd
# 
# Track frame offsets:
#     150
#     19245
#     54052
#     87045
#     111672
#     151940
#     184555
#     221740
#     260827
# 
# Disc length: 3717
# 
# Revision: 1
# Processed by: cddbd v1.5.2PL0 Copyright (c) Steve Scherf et al.
# Submitted via: fre:ac v1.0.27
# 
DISCID=750e8309
DTITLE=George Adams - Come Sunday - George Adams Memorial
DYEAR=0
DGENRE=Jazz
TTITLE0=Come Sunday
TTITLE1=Besame Mucho
TTITLE2=Bridge Over Troubled Water
TTITLE3=What A Wonderful World
TTITLE4=Nothing Ever Changed My Love For You
TTITLE5=That Old Feeling
TTITLE6=Song From The Old Country
TTITLE7=How Deep Is The Ocean
TTITLE8=America The Beautiful
EXTD=
EXTT0=
EXTT1=
EXTT2=
EXTT3=
EXTT4=
EXTT5=
EXTT6=
EXTT7=
EXTT8=
PLAYORDER=
